<!DOCTYPE svg PUBLIC "-//W3C//DTD SVG 1.1//EN" "http://www.w3.org/Graphics/SVG/1.1/DTD/svg11.dtd">
<!-- Uploaded to: SVG Repo, www.svgrepo.com, Transformed by: SVG Repo Mixer Tools -->
<svg fill="#008fb3" version="1.1" id="Capa_1" xmlns="http://www.w3.org/2000/svg" xmlns:xlink="http://www.w3.org/1999/xlink" width="800px" height="800px" viewBox="0 0 540.588 540.588" xml:space="preserve" stroke="#008fb3" stroke-width="5.40588">
<g id="SVGRepo_bgCarrier" stroke-width="0"/>
<g id="SVGRepo_tracerCarrier" stroke-linecap="round" stroke-linejoin="round"/>
<g id="SVGRepo_iconCarrier"> <g> <g> <path d="M383.901,0H156.687c-20.225,0-36.682,16.457-36.682,36.682v467.215c0,20.225,16.457,36.691,36.682,36.691h227.215 c20.225,0,36.682-16.467,36.682-36.691V36.682C420.583,16.457,404.136,0,383.901,0z M406.239,503.896 c0,12.325-10.012,22.347-22.338,22.347H156.687c-12.307,0-22.338-10.021-22.338-22.347V36.682 c0-12.307,10.031-22.338,22.338-22.338h227.215c12.326,0,22.338,10.031,22.338,22.338V503.896L406.239,503.896z"/> <path d="M388.462,59.651H152.125c-1.979,0-3.586,1.606-3.586,3.586v410.174c0,1.979,1.606,3.586,3.586,3.586h236.337 c1.98,0,3.586-1.606,3.586-3.586V63.237C392.048,61.257,390.442,59.651,388.462,59.651z M375.313,469.825h-210.04 c-5.278,0-9.562-4.284-9.562-9.562V76.385c0-5.278,4.284-9.562,9.562-9.562h210.04c5.279,0,9.562,4.284,9.562,9.562v383.877 C384.876,465.541,380.593,469.825,375.313,469.825z"/> <path d="M250.122,37.81h40.344c1.979,0,3.586-1.606,3.586-3.586c0-1.979-1.607-3.586-3.586-3.586h-40.344 c-1.979,0-3.586,1.607-3.586,3.586C246.536,36.204,248.142,37.81,250.122,37.81z"/> <path d="M290.954,485.191h-41.311c-8.481,0-15.386,6.904-15.386,15.377v2.467c0,8.482,6.914,15.387,15.386,15.387h41.311 c8.48,0,15.385-6.914,15.385-15.387v-2.467C306.339,492.096,299.427,485.191,290.954,485.191z M299.167,503.035 c0,4.533-3.682,8.215-8.213,8.215h-41.311c-4.522,0-8.214-3.691-8.214-8.215v-2.467c0-4.523,3.701-8.205,8.214-8.205h41.311 c4.541,0,8.213,3.691,8.213,8.205V503.035z"/> <path d="M219.445,215.673c2.382-4.714,6.914-9.132,12.192-9.132h1.071c5.278,0,9.811,4.418,12.192,9.132 c4.188,8.281,12.718,13.98,22.625,13.98c9.907,0,18.446-5.699,22.624-13.98c2.383-4.714,6.914-9.132,12.193-9.132h1.07 c5.279,0,9.812,4.418,12.193,9.132c0.611,1.214,1.318,2.372,2.113,3.471c3.107,4.274,5,10.328,2.609,15.042l-25.561,50.433 c-2.391,4.715-5.049,7.812-5.947,6.924c-0.898-0.89,1.023-4.6,2.688-9.113c0.984-2.658,1.52-5.527,1.52-8.53 c0-14.066-11.436-25.503-25.502-25.503c-14.066,0-25.504,11.437-25.504,25.503c0,14.066,11.438,25.504,25.504,25.504 c3.06,0,5.985-0.564,8.682-1.578c4.59-1.722,8.598-3.528,9.793-2.343s0.238,5.957-2.152,10.672l-2.678,5.288 c-2.391,4.714-6.32,7.688-8.912,7.172c-1.53-0.307-3.118-0.469-4.743-0.469c-14.066,0-25.503,11.437-25.503,25.503 s11.437,25.503,25.503,25.503c9.907,0,18.446-5.699,22.625-13.979c2.381-4.715,6.912-9.133,12.191-9.133h1.07 c5.279,0,9.812,4.418,12.193,9.133c4.188,8.28,12.717,13.979,22.625,13.979c14.066,0,25.502-11.437,25.502-25.503 s-11.436-25.503-25.502-25.503c-3.061,0-5.977,0.564-8.684,1.578c-4.59,1.721-10.672,1.473-14.43-2.238l-14.295-14.104 c-3.76-3.71-4.877-10.528-2.486-15.242l26.248-51.781c2.391-4.714,6.32-7.688,8.912-7.172c1.531,0.306,3.117,0.469,4.744,0.469 c14.066,0,25.502-11.437,25.502-25.503s-11.436-25.503-25.502-25.503c-9.908,0-18.447,5.7-22.625,13.98 c-2.381,4.714-6.914,9.132-12.193,9.132h-1.07c-5.279,0-9.811-4.418-12.191-9.132c-4.189-8.281-12.719-13.98-22.625-13.98 c-9.907,0-18.446,5.7-22.625,13.98c-2.381,4.714-6.914,9.132-12.192,9.132h-1.071c-5.278,0-9.811-4.418-12.192-9.132 c-4.188-8.281-12.718-13.98-22.625-13.98c-14.066,0-25.503,11.437-25.503,25.503s11.437,25.503,25.503,25.503 C206.727,229.653,215.256,223.954,219.445,215.673z M281.353,284.169c-1.348-1.329-1.311-3.939-0.611-6.148 c0.41-1.301,0.631-2.688,0.631-4.122c0-7.63-6.207-13.836-13.837-13.836c-7.631,0-13.837,6.206-13.837,13.836 c0,7.631,6.206,13.837,13.837,13.837c1.473,0,2.889-0.238,4.208-0.669c2.247-0.727,4.887-0.842,6.245,0.497 c1.348,1.329,0.02,4.523-3.605,5.843c-2.133,0.774-4.437,1.205-6.847,1.205c-11.427,0-20.722-9.295-20.722-20.722 c0-11.428,9.295-20.722,20.722-20.722c11.427,0,20.722,9.294,20.722,20.722c0,2.361-0.41,4.618-1.156,6.722 C285.819,284.188,282.7,285.498,281.353,284.169z M268.903,278.613c1.692,1.664,2.161,3.586,0.927,3.978 c-0.727,0.229-1.491,0.363-2.295,0.363c-4.991,0-9.056-4.063-9.056-9.056c0-4.991,4.064-9.055,9.056-9.055 c5.001,0,9.056,4.064,9.056,9.055c0,0.784-0.125,1.53-0.344,2.248c-0.373,1.204-2.285,0.735-3.979-0.928l-3.06-3.022 c-0.947-0.927-2.448-0.908-3.386,0.02c-0.927,0.946-0.918,2.458,0.02,3.385C265.852,275.601,267.219,276.949,268.903,278.613z M246.813,343.647c0-11.427,9.295-20.722,20.722-20.722c1.243,0,2.448,0.124,3.624,0.354c1.979,0.383,2.821,2.381,1.952,4.093 c-0.871,1.712-2.449,2.812-3.558,2.62c-0.659-0.114-1.329-0.182-2.018-0.182c-7.631,0-13.837,6.206-13.837,13.837 s6.206,13.837,13.837,13.837c3.424,0,6.541-1.253,8.951-3.318c4.006-3.442,6.188-8.138,8.08-8.138c1.904,0,3.107,4.495,0.23,8.922 c-3.672,5.661-10.021,9.41-17.261,9.41C256.108,364.369,246.813,355.075,246.813,343.647z M267.526,346.038c0,0,1.922,0,4.283,0 c2.372,0,3.653,2.792,1.12,4.791c-1.483,1.176-3.347,1.874-5.403,1.874c-4.992,0-9.056-4.063-9.056-9.056 c0-4.991,4.063-9.056,9.056-9.056c0.306,0,0.593,0.058,0.879,0.134c0.479,0.125-0.009,1.922-1.08,4.036l-1.932,3.814 c-0.373,0.736-0.335,1.616,0.096,2.334C265.928,345.608,266.703,346.038,267.526,346.038z M272.507,339.134 c0.594-1.176,1.941-1.377,2.641-0.182c0.697,1.195-0.086,2.305-1.377,2.305C272.47,341.257,271.905,340.301,272.507,339.134z M279.288,336.428c-1.512-2.438-2.773-5.202-1.904-6.923c0.871-1.722,5.174-0.918,7.746,3.318 c2.572,4.245,1.338,8.434-0.555,8.434C282.663,341.257,280.798,338.866,279.288,336.428z M358.972,343.647 c0,11.428-9.295,20.722-20.723,20.722c-7.248,0-13.588-3.748-17.26-9.409c-2.879-4.428-1.674-8.922,0.23-8.922 c1.902,0,4.072,4.695,8.08,8.138c2.408,2.065,5.535,3.318,8.949,3.318c7.631,0,13.838-6.206,13.838-13.837 s-6.207-13.837-13.838-13.837c-1.473,0-2.877,0.239-4.207,0.669c-2.246,0.728-4.896,0.842-6.244-0.497 c-1.357-1.339-0.029-4.522,3.596-5.843c2.143-0.774,4.447-1.214,6.855-1.214C349.667,322.926,358.972,332.221,358.972,343.647z M340.458,344.556c0.373-0.898,0.154-1.932-0.535-2.61c0,0-1.367-1.348-3.061-3.012c-1.682-1.664-2.15-3.586-0.918-3.979 c0.727-0.229,1.492-0.363,2.295-0.363c4.992,0,9.057,4.064,9.057,9.056c0,4.992-4.064,9.056-9.057,9.056 c-2.055,0-3.92-0.698-5.402-1.874c-2.523-1.999-1.242-4.791,1.119-4.791h4.283C339.216,346.038,340.085,345.445,340.458,344.556z M330.007,340.253c0.211-0.535,0.889-0.507,1.424,0.028c0.547,0.536,0.373,0.976-0.381,0.976 C330.284,341.257,329.786,340.798,330.007,340.253z M324.433,333.378c1.348,1.329,1.654,3.499,1.041,5.02 c-0.621,1.521-2.361,2.859-4.254,2.859c-1.904,0-3.223-2.562-2.047-5.44C320.339,332.938,323.073,332.039,324.433,333.378z M314.765,334.019c-1.568,3.824-6.053,7.238-11.342,7.238h-1.07c-5.279,0-9.812-4.427-12.193-9.132 c-0.611-1.215-1.318-2.381-2.113-3.472c-3.107-4.274-5-10.327-2.609-15.042l1.998-3.93c2.391-4.714,7.373-5.527,11.131-1.816 l13.205,13.023C315.528,324.6,316.323,330.193,314.765,334.019z M358.972,204.15c0,11.427-9.295,20.722-20.723,20.722 c-1.242,0-2.447-0.125-3.623-0.354c-1.98-0.382-2.812-2.381-1.951-4.093c0.871-1.712,2.447-2.812,3.557-2.62 c0.66,0.115,1.33,0.182,2.018,0.182c7.631,0,13.838-6.206,13.838-13.837s-6.207-13.837-13.838-13.837 c-3.422,0-6.541,1.252-8.949,3.318c-4.008,3.433-6.188,8.138-8.08,8.138c-1.904,0-3.1-4.495-0.23-8.922 c3.672-5.661,10.021-9.41,17.26-9.41C349.667,183.428,358.972,192.723,358.972,204.15z M338.249,201.759c0,0-1.922,0-4.283,0 c-2.371,0-3.652-2.792-1.119-4.791c1.482-1.176,3.348-1.875,5.402-1.875c4.992,0,9.057,4.064,9.057,9.056 s-4.064,9.056-9.057,9.056c-0.305,0-0.592-0.057-0.879-0.134c-0.469-0.125,0.01-1.922,1.08-4.036l1.932-3.815 c0.373-0.736,0.334-1.616-0.096-2.333C339.847,202.189,339.071,201.759,338.249,201.759z M333.276,208.664 c-0.592,1.176-1.939,1.377-2.639,0.182c-0.697-1.195,0.086-2.305,1.377-2.305S333.87,207.497,333.276,208.664z M326.487,211.37 c1.512,2.438,2.783,5.202,1.904,6.923c-0.871,1.721-5.174,0.918-7.746-3.318c-2.572-4.246-1.34-8.434,0.555-8.434 C323.112,206.541,324.978,208.931,326.487,211.37z M284.796,192.837c2.877,4.428,1.672,8.922-0.23,8.922s-4.072-4.695-8.08-8.138 c-2.41-2.065-5.537-3.318-8.951-3.318c-3.413,0-6.54,1.253-8.95,3.318c-4.007,3.433-6.187,8.138-8.08,8.138 c-1.903,0-3.099-4.494-0.229-8.922c3.672-5.661,10.021-9.41,17.26-9.41C274.774,183.428,281.124,187.176,284.796,192.837z M262.123,196.969c1.482-1.176,3.347-1.875,5.403-1.875c2.056,0,3.92,0.698,5.403,1.875c2.523,1.998-0.67,4.791-5.403,4.791 C262.792,201.759,259.598,198.967,262.123,196.969z M272.938,211.332c-1.483,1.176-3.347,1.874-5.404,1.874 c-2.056,0-3.92-0.698-5.402-1.874c-2.524-1.999,0.669-4.791,5.402-4.791C272.269,206.541,275.462,209.333,272.938,211.332z M258.594,214.688c2.409,2.056,5.527,3.299,8.94,3.299c3.424,0,6.541-1.252,8.951-3.318c4.006-3.433,6.188-8.137,8.08-8.137 c1.904,0,3.107,4.494,0.23,8.921c-3.672,5.661-10.021,9.41-17.261,9.41c-7.238,0-13.588-3.749-17.26-9.41 c-2.879-4.427-1.674-8.921,0.229-8.921C252.398,206.541,254.578,211.255,258.594,214.688z M214.081,192.837 c2.878,4.428,1.674,8.922-0.229,8.922s-4.073-4.695-8.08-8.138c-2.41-2.065-5.537-3.318-8.951-3.318 c-7.631,0-13.837,6.207-13.837,13.837s6.206,13.837,13.837,13.837c3.423,0,6.541-1.253,8.951-3.318 c4.007-3.433,6.187-8.138,8.08-8.138c1.903,0,3.099,4.494,0.229,8.922c-3.672,5.661-10.021,9.409-17.26,9.409 c-11.427,0-20.722-9.294-20.722-20.722s9.295-20.722,20.722-20.722C204.059,183.428,210.409,187.176,214.081,192.837z M201.104,206.541c2.372,0,3.653,2.792,1.119,4.791c-1.482,1.176-3.347,1.874-5.403,1.874c-4.992,0-9.056-4.064-9.056-9.056 c0-5.001,4.064-9.056,9.056-9.056c2.056,0,3.92,0.698,5.403,1.874c2.524,1.999,1.243,4.791-1.119,4.791h-4.284 c-1.32,0-2.391,1.071-2.391,2.391s1.071,2.391,2.391,2.391C196.811,206.541,198.733,206.541,201.104,206.541z"/> <path d="M196.811,299.402c14.067,0,25.503-11.438,25.503-25.504c0-14.066-11.437-25.503-25.503-25.503 c-14.066,0-25.503,11.437-25.503,25.503C171.308,287.965,182.754,299.402,196.811,299.402z M196.811,253.177 c11.427,0,20.722,9.295,20.722,20.722c0,11.428-9.295,20.723-20.722,20.723s-20.722-9.295-20.722-20.723 C176.089,262.472,185.393,253.177,196.811,253.177z"/> <path d="M196.811,287.735c7.631,0,13.837-6.206,13.837-13.837c0-7.63-6.206-13.836-13.837-13.836 c-7.631,0-13.837,6.206-13.837,13.836C182.974,281.529,189.189,287.735,196.811,287.735z M196.811,264.843 c5.001,0,9.056,4.064,9.056,9.055c0,4.992-4.064,9.056-9.056,9.056s-9.056-4.063-9.056-9.056 C187.755,268.907,191.819,264.843,196.811,264.843z"/> <path d="M338.249,248.396c-14.066,0-25.502,11.437-25.502,25.503c0,14.066,11.436,25.504,25.502,25.504 s25.504-11.438,25.504-25.504C363.753,259.833,352.306,248.396,338.249,248.396z M338.249,294.621 c-11.426,0-20.721-9.295-20.721-20.723c0-11.427,9.295-20.722,20.721-20.722c11.428,0,20.723,9.295,20.723,20.722 C358.972,285.326,349.667,294.621,338.249,294.621z"/> <path d="M338.249,260.062c-7.631,0-13.836,6.206-13.836,13.836c0,7.631,6.205,13.837,13.836,13.837s13.838-6.206,13.838-13.837 C352.087,266.268,345.87,260.062,338.249,260.062z M338.249,282.954c-4.99,0-9.055-4.063-9.055-9.056 c0-4.991,4.064-9.055,9.055-9.055c4.992,0,9.057,4.064,9.057,9.055C347.306,278.891,343.241,282.954,338.249,282.954z"/> <path d="M196.811,369.15c14.067,0,25.503-11.437,25.503-25.503s-11.437-25.503-25.503-25.503 c-14.066,0-25.503,11.437-25.503,25.503S182.754,369.15,196.811,369.15z M196.811,322.926c11.427,0,20.722,9.295,20.722,20.722 c0,11.428-9.295,20.722-20.722,20.722s-20.722-9.294-20.722-20.722C176.089,332.221,185.393,322.926,196.811,322.926z"/> <path d="M196.811,357.484c7.631,0,13.837-6.206,13.837-13.837s-6.206-13.837-13.837-13.837c-7.631,0-13.837,6.206-13.837,13.837 S189.189,357.484,196.811,357.484z M196.811,334.592c5.001,0,9.056,4.064,9.056,9.056c0,4.992-4.064,9.056-9.056,9.056 s-9.056-4.063-9.056-9.056C187.755,338.646,191.819,334.592,196.811,334.592z"/> </g> </g> </g>
</svg>